HIERARCHY
ROOT Hips
{
	OFFSET 0.00000 0.00000 0.00000
	CHANNELS 6 Xposition Yposition Zposition Zrotation Yrotation Xrotation 
	JOINT LHipJoint
	{
		OFFSET 0 0 0
		CHANNELS 3 Zrotation Yrotation Xrotation
		JOINT LeftHip
		{
			OFFSET 1.36337 -1.57426 1.11036
			CHANNELS 3 Zrotation Yrotation Xrotation
			JOINT LeftKnee
			{
				OFFSET 2.38468 -6.55187 0.00000
				CHANNELS 3 Zrotation Yrotation Xrotation
				JOINT LeftAnkle
				{
					OFFSET 2.37166 -6.51609 0.00000
					CHANNELS 3 Zrotation Yrotation Xrotation
					JOINT LeftToe
					{
						OFFSET 0.29078 -0.79891 2.01393
						CHANNELS 3 Zrotation Yrotation Xrotation
						End Site
						{
							OFFSET 0.00000 -0.00000 1.07924
						}
					}
				}
			}
		}
	}
	JOINT RHipJoint
	{
		OFFSET 0 0 0
		CHANNELS 3 Zrotation Yrotation Xrotation
		JOINT RightHip
		{
			OFFSET -1.36349 -1.57426 1.11036
			CHANNELS 3 Zrotation Yrotation Xrotation
			JOINT RightKnee
			{
				OFFSET -2.29562 -6.30717 0.00000
				CHANNELS 3 Zrotation Yrotation Xrotation
				JOINT RightAnkle
				{
					OFFSET -2.40985 -6.62100 0.00000
					CHANNELS 3 Zrotation Yrotation Xrotation
					JOINT RightToe
					{
						OFFSET -0.23197 -0.63733 1.92232
						CHANNELS 3 Zrotation Yrotation Xrotation
						End Site
						{
							OFFSET -0.00000 -0.00000 1.01562
						}
					}
				}
			}
		}
	}
	JOINT lowerback
	{
		OFFSET 0 0 0
		CHANNELS 3 Zrotation Yrotation Xrotation
		JOINT Chest
		{
			OFFSET -0.08565 2.03602 -0.24562
			CHANNELS 3 Zrotation Yrotation Xrotation
			JOINT Chest2
			{
				OFFSET -0.00036 2.05693 0.00216
				CHANNELS 3 Zrotation Yrotation Xrotation
				JOINT lowerneck
				{
					OFFSET 0 0 0
					CHANNELS 3 Zrotation Yrotation Xrotation
					JOINT Neck
					{
						OFFSET -0.03664 1.69515 0.31789
						CHANNELS 3 Zrotation Yrotation Xrotation
						JOINT Head
						{
							OFFSET 0.00932 1.70181 -0.46013
							CHANNELS 3 Zrotation Yrotation Xrotation
							End Site
							{
								OFFSET 0.01243 1.77620 -0.19377
							}
						}
					}
				}
				JOINT LeftCollar
				{
					OFFSET 0 0 0
					CHANNELS 3 Zrotation Yrotation Xrotation
					JOINT LeftShoulder
					{
						OFFSET 3.74344 0.81315 -0.36647
CHANNELS 3 Zrotation Xrotation Yrotation
						JOINT LeftElbow
						{
OFFSET 0 -4.971850 -0.000000
CHANNELS 3 Zrotation Xrotation Yrotation
							JOINT LeftWrist
							{
OFFSET 0 -3.358110 0.000000
CHANNELS 3 Zrotation Xrotation Yrotation
								JOINT lhand
								{
									OFFSET 0 0 0
CHANNELS 3 Zrotation Xrotation Yrotation
									JOINT LFingers
									{
OFFSET 0 -0.622780 0.000000
CHANNELS 3 Zrotation Xrotation Yrotation
										End Site
										{
OFFSET 0 -0.502100 0.000000
										}
									}
								}
								JOINT LThumb
								{
OFFSET 0 0.000000 0.000000
CHANNELS 3 Zrotation Xrotation Yrotation
									End Site
									{
OFFSET 0 -0.509760 0.509760
									}
								}
							}
						}
					}
				}
				JOINT RightCollar
				{
					OFFSET 0 0 0
					CHANNELS 3 Zrotation Yrotation Xrotation
					JOINT RightShoulder
					{
						OFFSET -3.75385 0.50666 -0.06525
CHANNELS 3 Zrotation Xrotation Yrotation
						JOINT RightElbow
						{
OFFSET 0 -4.964930 -0.000000
CHANNELS 3 Zrotation Xrotation Yrotation
							JOINT RightWrist
							{
OFFSET 0 -3.349290 0.000000
CHANNELS 3 Zrotation Xrotation Yrotation
								JOINT rhand
								{
									OFFSET 0 0 0
CHANNELS 3 Zrotation Xrotation Yrotation
									JOINT RFingers
									{
OFFSET 0 -0.638040 0.000000
CHANNELS 3 Zrotation Xrotation Yrotation
										End Site
										{
OFFSET 0 -0.514410 0.000000
										}
									}
								}
								JOINT RThumb
								{
OFFSET 0 0.000000 0.000000
CHANNELS 3 Zrotation Xrotation Yrotation
									End Site
									{
OFFSET 0 -0.522260 0.522260
									}
								}
							}
						}
					}
				}
			}
		}
	}
}
MOTION
Frames: 10
Frame Time: 0.008333333333333333
5.273800 16.981900 -1.110000 135.239000 -84.627900 -132.718000 0.000000 0.000000 0.000000 -18.869700 -6.404100 1.757300 0.729300 5.456500 15.215200 0.661500 14.855800 -26.978300 0.077600 1.797000 4.945000 0.000000 0.000000 0.000000 11.187600 -1.775600 2.461800 -0.126600 -2.293300 6.316800 0.213100 -14.933400 -18.751700 -0.023200 -0.982800 2.701600 -5.988900 -1.188200 -7.683400 0.183900 -0.999600 1.891500 3.430400 -0.728800 6.421800 -13.875700 -9.952800 -16.580300 6.480400 -13.296900 30.085700 2.456800 -6.755500 14.560000 0.000000 0.000000 0.000000 -1.708600 -3.085700 -22.694900 11.105100 -18.449100 1.809000 21.776800 -6.633200 12.055900 0.000000 0.000000 0.000000 -7.125000 0.000000 0.000000 -3.777800 17.045300 -2.510000 0.000000 0.000000 0.000000 -3.370000 -1.463800 18.382900 -13.005600 -21.295400 -2.455300 -12.009300 -3.040500 28.074100 0.000000 0.000000 0.000000 7.125000 0.000000 -0.000000 20.428700 57.393400 -6.379200
5.284326 16.991913 -1.102581 133.239556 -84.391067 -130.684235 0.000000 0.000000 0.000000 -19.274197 -6.816873 1.856462 0.721480 5.427495 15.131897 0.679059 15.025929 -27.294909 0.097874 2.017444 5.553878 0.000000 0.000000 0.000000 10.728362 -1.766122 2.475106 -0.118057 -2.215049 6.100270 0.249627 -15.104460 -18.566751 -0.013537 -0.748027 2.055742 -6.145557 -1.227182 -7.627473 0.086217 -1.034923 1.896575 3.411218 -0.750121 6.400839 -13.889679 -9.819872 -16.312019 6.523214 -13.123534 29.877465 2.524779 -6.685291 14.391855 0.000000 0.000000 0.000000 -1.723009 -3.163900 -22.624535 11.128326 -18.484695 1.816381 21.837995 -6.765595 12.047163 0.000000 0.000000 0.000000 -7.125000 0.000000 0.000000 -3.734816 17.048853 -2.480945 0.000000 0.000000 0.000000 -3.233519 -1.505897 17.795091 -13.175881 -21.544249 -2.517492 -11.682148 -2.111465 29.087517 0.000000 0.000000 0.000000 7.125000 0.000000 0.000000 21.471268 58.264885 -7.182489
5.303925 17.003534 -1.088764 138.427533 -83.679649 -135.614963 0.000000 0.000000 0.000000 -19.563558 -6.900822 1.601319 0.734152 5.474106 15.265831 0.687935 15.601108 -27.979852 0.107076 2.110061 5.809855 0.000000 0.000000 0.000000 10.426819 -0.987274 2.778757 -0.074931 -1.760225 4.843545 0.405399 -15.797697 -17.695258 -0.006664 -0.523419 1.438209 -5.921081 -0.894839 -7.749160 -0.075520 -0.597914 1.847602 3.172352 -0.521577 6.365063 -14.003160 -9.794750 -15.974397 6.859484 -13.174782 29.534664 2.683787 -6.684146 14.213184 0.000000 0.000000 0.000000 -1.572535 -3.264783 -22.938278 11.170931 -18.549703 1.829956 21.928878 -6.881842 12.049992 0.000000 0.000000 0.000000 -7.125000 0.000000 0.000000 -3.671642 17.037280 -2.439612 0.000000 0.000000 0.000000 -2.902333 -1.573232 16.849769 -13.298120 -21.722448 -2.562565 -11.794366 -1.181059 29.038197 0.000000 0.000000 0.000000 7.125000 0.000000 0.000000 21.319347 58.244091 -7.116623
5.409987 17.028168 -1.127402 151.402945 -84.026460 -148.263377 0.000000 0.000000 0.000000 -17.732458 -7.145228 0.768019 0.752711 5.541212 15.458784 0.664264 15.915061 -28.151346 0.138143 2.390375 6.586064 0.000000 0.000000 0.000000 12.266198 -0.742398 3.419646 -0.021051 -0.866848 2.382917 0.550812 -16.312595 -16.538432 -0.058634 -1.474236 4.056091 -5.160238 -0.658270 -6.546536 0.400757 -0.454883 1.489612 3.266296 -0.397064 5.282276 -13.808228 -9.905230 -16.408445 6.517448 -13.259529 29.905598 2.477768 -6.730361 14.434472 0.000000 0.000000 0.000000 -1.532998 -3.204187 -23.257820 11.302487 -18.750419 1.872064 21.519372 -6.840920 11.391477 0.000000 0.000000 0.000000 -7.125000 0.000000 0.000000 -3.934826 17.776729 -2.551159 0.000000 0.000000 0.000000 -2.578975 -1.600769 15.508141 -13.341150 -21.785003 -2.578521 -11.017448 -0.395863 29.008037 0.000000 0.000000 0.000000 7.125000 0.000000 0.000000 22.092102 58.047242 -7.285992
5.443660 17.047328 -1.133153 152.494272 -83.848754 -149.197990 0.000000 0.000000 0.000000 -17.702823 -7.519574 0.397625 0.780957 5.641825 15.748797 0.640115 16.317151 -28.415658 0.132494 2.345776 6.462363 0.000000 0.000000 0.000000 12.207489 -0.798914 4.354709 0.000000 0.000000 0.000000 0.717023 -16.997707 -15.301993 -0.052906 -1.482427 4.077263 -5.249031 -0.571041 -6.197053 0.441209 -0.364250 1.354347 3.372535 -0.341671 4.931241 -13.986240 -9.808342 -15.979599 6.800501 -13.171364 29.501288 2.658426 -6.686519 14.192267 0.000000 0.000000 0.000000 -1.555519 -3.209545 -23.570445 11.332265 -18.795760 1.881547 21.437718 -7.254118 10.994993 0.000000 0.000000 0.000000 -7.125000 0.000000 0.000000 -3.979749 18.206381 -2.543285 0.000000 0.000000 0.000000 -2.594522 -1.653293 15.343337 -13.241770 -21.640393 -2.541773 -10.554953 -0.396387 29.305870 0.000000 0.000000 0.000000 7.125000 0.000000 0.000000 22.781523 58.220420 -7.624347
5.470575 17.053237 -1.137312 153.893195 -83.953552 -150.516431 0.000000 0.000000 0.000000 -17.424362 -7.495613 0.123550 0.784188 5.653222 15.781650 0.603150 16.334569 -28.166632 0.121706 2.249132 6.194605 0.000000 0.000000 0.000000 12.438654 -0.760886 4.172246 0.000000 0.000000 0.000000 0.711737 -16.937670 -15.247417 -0.067003 -1.669637 4.593442 -5.121963 -0.570504 -5.934950 0.499042 -0.392769 1.288296 3.359111 -0.345838 4.714940 -13.851726 -9.759028 -16.069784 6.686882 -13.090392 29.557049 2.604664 -6.648995 14.203335 0.000000 0.000000 0.000000 -1.552549 -3.266652 -23.703774 11.299165 -18.745372 1.870878 21.699771 -7.387388 10.785885 0.000000 0.000000 0.000000 -7.125000 0.000000 0.000000 -3.788817 18.407335 -2.403844 0.000000 0.000000 0.000000 -2.556648 -1.731805 15.219442 -13.190504 -21.565654 -2.522871 -10.485022 -0.162472 29.596518 0.000000 0.000000 0.000000 7.125000 0.000000 0.000000 23.070684 58.470705 -7.868690
5.479415 17.050513 -1.135976 152.429875 -83.951920 -148.975967 0.000000 0.000000 0.000000 -17.564991 -7.546766 0.164833 0.758091 5.560605 15.514619 0.604813 16.302487 -28.142494 0.148395 2.482002 6.839842 0.000000 0.000000 0.000000 12.275251 -0.806438 4.045740 0.000000 0.000000 0.000000 0.724214 -17.049475 -15.300622 -0.051346 -1.461746 4.020290 -5.189173 -0.609485 -5.993491 0.438964 -0.433331 1.307090 3.329857 -0.368918 4.772090 -13.779124 -9.705940 -16.124998 6.715723 -13.032956 29.558122 2.614593 -6.610968 14.203914 0.000000 0.000000 0.000000 -1.531174 -3.324760 -23.782221 11.269364 -18.699958 1.861384 21.842311 -7.712498 11.311904 0.000000 0.000000 0.000000 -7.125000 0.000000 0.000000 -3.705370 17.833619 -2.397754 0.000000 0.000000 0.000000 -2.509859 -1.852736 15.131975 -13.132922 -21.481638 -2.501763 -10.365486 0.007350 29.949808 0.000000 0.000000 0.000000 7.125000 0.000000 0.000000 23.464418 58.766012 -8.181633
5.381616 17.014203 -1.101041 139.680526 -83.500568 -136.684220 0.000000 0.000000 0.000000 -19.483983 -7.214041 1.128288 0.745253 5.514314 15.381431 0.671833 15.938276 -28.228559 0.121204 2.243264 6.178602 0.000000 0.000000 0.000000 10.381355 -1.513863 4.797566 0.000000 0.000000 0.000000 0.737128 -17.204998 -15.459399 -0.008757 -0.565394 1.553788 -5.921805 -0.829920 -7.107817 -0.096974 -0.556697 1.774239 3.159547 -0.487157 5.916097 -13.761067 -9.692885 -16.084483 6.798019 -13.036824 29.448309 2.646166 -6.599566 14.152822 0.000000 0.000000 0.000000 -1.514332 -3.350905 -23.752692 11.274982 -18.708589 1.863142 21.637430 -7.729628 11.643416 0.000000 0.000000 0.000000 -7.125000 0.000000 0.000000 -3.860191 17.498098 -2.526634 0.000000 0.000000 0.000000 -2.487495 -1.860232 15.322668 -13.231218 -21.625003 -2.537862 -10.471495 0.052090 30.690359 0.000000 0.000000 0.000000 7.125000 0.000000 0.000000 23.942519 59.461504 -8.763422
5.499015 17.049668 -1.141218 150.260012 -84.155272 -146.617104 0.000000 0.000000 0.000000 -17.558367 -7.523562 -0.033708 0.724088 5.437106 15.159574 0.558950 16.192468 -27.680229 0.144823 2.449693 6.750384 0.000000 0.000000 0.000000 12.433363 -0.360146 1.840563 -0.044075 -1.333448 3.666996 0.483735 -16.098156 -17.140529 -0.039716 -1.276067 3.508886 -5.314920 -0.754035 -6.087431 0.445746 -0.609030 1.339372 3.388700 -0.463587 4.878883 -13.598148 -9.670443 -16.306267 6.577706 -12.945217 29.524752 2.541526 -6.561580 14.188814 0.000000 0.000000 0.000000 -1.611190 -3.321193 -23.832953 11.358463 -18.835546 1.890070 21.834475 -7.568267 11.449265 0.000000 0.000000 0.000000 -7.125000 0.000000 0.000000 -3.715439 17.687471 -2.416189 0.000000 0.000000 0.000000 -2.581797 -1.961922 15.498506 -13.269410 -21.680638 -2.551972 -10.191108 -0.160887 30.896292 0.000000 0.000000 0.000000 7.125000 0.000000 0.000000 24.400337 59.582756 -9.016464
5.395465 17.021479 -1.096848 140.316649 -83.798219 -136.743918 0.000000 0.000000 0.000000 -19.171166 -7.475242 0.703305 0.715467 5.405621 15.069122 0.635038 15.982483 -28.008119 0.121888 2.250194 6.197557 0.000000 0.000000 0.000000 10.731586 -0.713049 1.822448 -0.063147 -1.620145 4.457064 0.472390 -16.113641 -17.339979 -0.000562 -0.148639 0.408394 -5.543091 -0.926530 -7.732396 -0.033460 -0.682889 1.787818 2.993049 -0.546207 6.293916 -13.559932 -9.694430 -16.403144 6.636215 -12.977944 29.431685 2.548610 -6.556876 14.174649 0.000000 0.000000 0.000000 -1.616321 -3.336447 -24.053151 11.458583 -18.987727 1.922513 22.130161 -7.423917 11.305689 0.000000 0.000000 0.000000 -7.125000 0.000000 0.000000 -3.503118 17.814555 -2.267670 0.000000 0.000000 0.000000 -2.577878 -2.127495 15.536950 -13.436724 -21.923706 -2.614183 -10.359691 0.259992 30.948743 0.000000 0.000000 0.000000 7.125000 0.000000 0.000000 24.269846 59.669329 -9.013808
